<?xml version="1.0" encoding="UTF-8" standalone="no"?>
<!-- Created with Inkscape (http://www.inkscape.org/) -->

<svg
   xmlns:dc="http://purl.org/dc/elements/1.1/"
   xmlns:cc="http://creativecommons.org/ns#"
   xmlns:rdf="http://www.w3.org/1999/02/22-rdf-syntax-ns#"
   xmlns:svg="http://www.w3.org/2000/svg"
   xmlns="http://www.w3.org/2000/svg"
   xmlns:sodipodi="http://sodipodi.sourceforge.net/DTD/sodipodi-0.dtd"
   xmlns:inkscape="http://www.inkscape.org/namespaces/inkscape"
   width="8.4666624mm"
   height="8.4666662mm"
   viewBox="0 0 8.4666624 8.4666662"
   version="1.1"
   id="svg1269"
   inkscape:version="0.92.4 (5da689c313, 2019-01-14)"
   sodipodi:docname="icon-pdf.svg">
  <defs
     id="defs1263" />
  <sodipodi:namedview
     id="base"
     pagecolor="#ffffff"
     bordercolor="#666666"
     borderopacity="1.0"
     inkscape:pageopacity="0.0"
     inkscape:pageshadow="2"
     inkscape:zoom="10.24"
     inkscape:cx="7.6364376"
     inkscape:cy="20.651928"
     inkscape:document-units="mm"
     inkscape:current-layer="layer1"
     showgrid="false"
     inkscape:window-width="2560"
     inkscape:window-height="1361"
     inkscape:window-x="2391"
     inkscape:window-y="-9"
     inkscape:window-maximized="1" />
  <metadata
     id="metadata1266">
    <rdf:RDF>
      <cc:Work
         rdf:about="">
        <dc:format>image/svg+xml</dc:format>
        <dc:type
           rdf:resource="http://purl.org/dc/dcmitype/StillImage" />
        <dc:title></dc:title>
      </cc:Work>
    </rdf:RDF>
  </metadata>
  <g
     inkscape:label="Layer 1"
     inkscape:groupmode="layer"
     id="layer1"
     transform="translate(-99.333609,-135.07764)">
    <g
       id="g112"
       transform="matrix(0.35277777,0,0,-0.35277777,101.15539,139.09737)">
      <path
         d="M 0,0 C -0.124,-0.116 -0.295,-0.174 -0.513,-0.174 H -1.2 v 1.279 h 0.687 C -0.295,1.105 -0.124,1.049 0,0.936 0.124,0.822 0.186,0.665 0.186,0.463 0.186,0.27 0.124,0.116 0,0 m 0.659,1.468 c -0.131,0.124 -0.286,0.22 -0.467,0.29 -0.18,0.069 -0.38,0.104 -0.598,0.104 h -1.67 v -4.467 h 0.869 v 1.682 h 0.801 c 0.218,0 0.418,0.035 0.598,0.104 0.181,0.07 0.336,0.165 0.467,0.287 0.13,0.121 0.229,0.268 0.299,0.441 0.069,0.172 0.104,0.359 0.104,0.56 0,0.202 -0.035,0.388 -0.104,0.558 -0.07,0.17 -0.169,0.317 -0.299,0.441"
         style="fill:#000000;fill-opacity:1;fill-rule:nonzero;stroke:none"
         id="path114"
         inkscape:connector-curvature="0" />
    </g>
    <g
       id="g116"
       transform="matrix(0.35277777,0,0,-0.35277777,102.7546,139.4529)">
      <path
         d="m 0,0 c -0.072,-0.179 -0.168,-0.326 -0.29,-0.445 -0.122,-0.117 -0.265,-0.204 -0.428,-0.261 -0.164,-0.057 -0.337,-0.085 -0.517,-0.085 h -0.693 v 2.854 h 0.699 c 0.181,0 0.353,-0.03 0.517,-0.088 C -0.548,1.916 -0.407,1.828 -0.287,1.71 -0.167,1.593 -0.072,1.445 0,1.266 0.071,1.087 0.107,0.876 0.107,0.633 0.107,0.389 0.071,0.178 0,0 M 0.381,2.28 C 0.186,2.471 -0.046,2.617 -0.315,2.718 -0.584,2.82 -0.878,2.87 -1.197,2.87 h -1.6 v -4.467 h 1.593 c 0.32,0 0.614,0.05 0.883,0.151 0.268,0.101 0.501,0.246 0.699,0.435 0.197,0.188 0.351,0.422 0.463,0.699 0.111,0.278 0.167,0.592 0.167,0.945 0,0.353 -0.056,0.668 -0.167,0.945 C 0.729,1.855 0.576,2.089 0.381,2.28"
         style="fill:#000000;fill-opacity:1;fill-rule:nonzero;stroke:none"
         id="path118"
         inkscape:connector-curvature="0" />
    </g>
    <g
       id="g120"
       transform="matrix(0.35277777,0,0,-0.35277777,103.3902,140.01636)">
      <path
         d="m 0,0 h 0.875 v 1.739 h 1.733 v 0.8 H 0.869 V 3.642 H 2.822 V 4.467 H 0 Z"
         style="fill:#000000;fill-opacity:1;fill-rule:nonzero;stroke:none"
         id="path122"
         inkscape:connector-curvature="0" />
    </g>
    <g
       id="g522"
       transform="matrix(0.35277777,0,0,-0.35277777,107.19808,141.60403)">
      <path
         d="M 0,0 -3.793,-3.793 V 0 Z m 1.207,18.5 h -18.5 c -0.276,0 -0.5,-0.224 -0.5,-0.5 v -5 c 0,-0.276 0.224,-0.5 0.5,-0.5 0.276,0 0.5,0.224 0.5,0.5 v 4.5 h 17.5 V 1 h -5 c -0.276,0 -0.5,-0.224 -0.5,-0.5 v -5 h -12 v 5 c 0,0.276 -0.224,0.5 -0.5,0.5 -0.276,0 -0.5,-0.224 -0.5,-0.5 V -5 c 0,-0.276 0.224,-0.5 0.5,-0.5 h 13 c 0.065,0 0.13,0.013 0.191,0.039 0.061,0.025 0.117,0.062 0.163,0.108 L 1.56,0.146 C 1.606,0.192 1.643,0.248 1.668,0.309 1.694,0.37 1.707,0.435 1.707,0.5 V 18 c 0,0.276 -0.224,0.5 -0.5,0.5"
         style="fill:#000000;fill-opacity:1;fill-rule:nonzero;stroke:none"
         id="path524"
         inkscape:connector-curvature="0" />
    </g>
    <path
       d="m 99.686387,137.89987 h 5.291663 v 2.64583 h -5.291663 z m -0.176389,2.99861 h 5.644442 c 0.0974,0 0.17639,-0.079 0.17639,-0.17639 v -2.99861 c 0,-0.0974 -0.079,-0.17639 -0.17639,-0.17639 h -5.644442 c -0.09737,0 -0.176389,0.079 -0.176389,0.17639 v 2.99861 c 0,0.0974 0.07902,0.17639 0.176389,0.17639"
       style="fill:#000000;fill-opacity:1;fill-rule:nonzero;stroke:none;stroke-width:0.35277775"
       id="path552"
       inkscape:connector-curvature="0" />
  </g>
</svg>
