<?xml version="1.0" encoding="UTF-8" standalone="no"?><!DOCTYPE svg PUBLIC "-//W3C//DTD SVG 1.1//EN" "http://www.w3.org/Graphics/SVG/1.1/DTD/svg11.dtd"><svg width="100%" height="100%" viewBox="0 0 100 67" version="1.1" xmlns="http://www.w3.org/2000/svg" xmlns:xlink="http://www.w3.org/1999/xlink" xml:space="preserve" xmlns:serif="http://www.serif.com/" style="fill-rule:evenodd;clip-rule:evenodd;stroke-linejoin:round;stroke-miterlimit:2;"><path id="path282" d="M4.167,44.348c0,-7.254 5.9,-13.15 13.15,-13.15l2.866,0c2.975,0 5.775,0.996 8.08,2.833c-0.321,0.267 -0.609,0.567 -0.913,0.854c-0.187,0.18 -0.387,0.35 -0.575,0.538c-0.787,0.804 -1.492,1.675 -2.133,2.587c-0.138,0.196 -0.271,0.388 -0.404,0.592c-0.63,0.963 -1.18,1.967 -1.642,3.017c-0.083,0.187 -0.15,0.379 -0.229,0.566c-0.45,1.113 -0.821,2.259 -1.071,3.442c-0.029,0.133 -0.042,0.271 -0.067,0.404c-0.246,1.279 -0.396,2.584 -0.396,3.917l0,4.167l-16.666,0l0,-9.767Zm14.583,-29.817c3.446,0 6.25,2.804 6.25,6.25c0,3.446 -2.804,6.25 -6.25,6.25c-3.446,0 -6.25,-2.804 -6.25,-6.25c0,-3.446 2.804,-6.25 6.25,-6.25m39.583,18.75c3.35,0 6.459,1.013 9.071,2.721c0.283,0.183 0.533,0.392 0.8,0.592c0.5,0.371 0.983,0.762 1.438,1.183c0.237,0.225 0.479,0.442 0.704,0.671c0.6,0.629 1.158,1.296 1.654,2.008c0.137,0.192 0.246,0.392 0.371,0.588c0.416,0.654 0.796,1.337 1.116,2.054c0.084,0.183 0.18,0.358 0.255,0.546c0.354,0.858 0.629,1.75 0.833,2.675c0.046,0.208 0.083,0.429 0.125,0.641c0.175,0.971 0.3,1.967 0.3,2.988l0,6.25l0,6.25l-50,0l0,-12.5c0,-1.025 0.125,-2.017 0.3,-2.992c0.042,-0.212 0.075,-0.425 0.125,-0.637c0.204,-0.925 0.479,-1.821 0.833,-2.679c0.075,-0.184 0.167,-0.355 0.246,-0.534c0.329,-0.721 0.709,-1.408 1.129,-2.071c0.121,-0.191 0.234,-0.391 0.363,-0.575c0.496,-0.716 1.058,-1.383 1.658,-2.012c0.225,-0.233 0.467,-0.446 0.7,-0.667c0.459,-0.425 0.942,-0.816 1.442,-1.187c0.267,-0.2 0.517,-0.409 0.8,-0.592c2.612,-1.708 5.721,-2.721 9.071,-2.721l16.666,0Zm-20.833,-16.666c0,-6.896 5.608,-12.5 12.5,-12.5c6.892,0 12.5,5.604 12.5,12.5c0,6.891 -5.608,12.5 -12.5,12.5c-6.892,0 -12.5,-5.609 -12.5,-12.5m34.233,17.416c2.309,-1.837 5.109,-2.833 8.084,-2.833l2.866,0c7.25,0 13.15,5.896 13.15,13.15l0,9.767l-16.666,0l0,-4.167c0,-1.333 -0.15,-2.638 -0.396,-3.917c-0.025,-0.133 -0.038,-0.271 -0.067,-0.404c-0.25,-1.183 -0.621,-2.325 -1.071,-3.442c-0.079,-0.187 -0.146,-0.379 -0.229,-0.566c-0.462,-1.05 -1.012,-2.054 -1.637,-3.013c-0.134,-0.204 -0.271,-0.404 -0.413,-0.6c-0.642,-0.908 -1.342,-1.775 -2.125,-2.579c-0.192,-0.196 -0.4,-0.367 -0.596,-0.554c-0.3,-0.283 -0.583,-0.575 -0.9,-0.842m9.517,-19.5c3.446,0 6.25,2.804 6.25,6.25c0,3.446 -2.804,6.25 -6.25,6.25c-3.446,0 -6.25,-2.804 -6.25,-6.25c0,-3.446 2.804,-6.25 6.25,-6.25m-79.167,43.75l18.75,0l0,6.25c0,1.15 0.934,2.084 2.084,2.084l54.166,0c1.15,0 2.084,-0.934 2.084,-2.084l0,-6.25l18.75,0c1.15,0 2.083,-0.933 2.083,-2.083l0,-11.85c0,-7.458 -4.767,-13.771 -11.388,-16.204c1.888,-1.888 3.055,-4.492 3.055,-7.363c0,-5.746 -4.675,-10.416 -10.417,-10.416c-5.742,0 -10.417,4.67 -10.417,10.416c0,2.892 1.188,5.509 3.096,7.396c-2.112,0.783 -4.046,1.979 -5.733,3.533c-2.304,-1.25 -4.846,-2.062 -7.571,-2.366c3.662,-3.059 6.042,-7.6 6.042,-12.729c0,-9.192 -7.475,-16.667 -16.667,-16.667c-9.192,0 -16.667,7.475 -16.667,16.667c0,5.129 2.38,9.67 6.042,12.729c-2.725,0.304 -5.267,1.116 -7.571,2.366c-1.687,-1.554 -3.621,-2.75 -5.733,-3.533c1.908,-1.887 3.096,-4.504 3.096,-7.396c0,-5.746 -4.675,-10.416 -10.417,-10.416c-5.742,0 -10.417,4.67 -10.417,10.416c0,2.871 1.167,5.475 3.055,7.363c-6.621,2.433 -11.388,8.746 -11.388,16.204l0,11.85c0,1.15 0.933,2.083 2.083,2.083" style="fill-rule:nonzero;"/></svg>